<svg width="37" height="36" viewBox="0 0 37 36" fill="none" xmlns="http://www.w3.org/2000/svg">
<path d="M18.5 0C8.28338 0 0 8.1857 0 18.2818C0 26.8484 5.96933 34.0164 14.0168 36C13.9305 35.7532 13.875 35.4668 13.875 35.1118V31.9871C13.1242 31.9871 11.8662 31.9871 11.5502 31.9871C10.2845 31.9871 9.15904 31.4493 8.61329 30.4499C8.00742 29.3393 7.90258 27.6406 6.401 26.6016C5.95546 26.2558 6.29462 25.8612 6.808 25.9145C7.75612 26.1796 8.54237 26.8225 9.28237 27.7762C10.0193 28.7314 10.3662 28.9478 11.7429 28.9478C12.4104 28.9478 13.4094 28.9097 14.3498 28.7634C14.8555 27.4944 15.7296 26.3259 16.798 25.7744C10.6375 25.1482 7.69754 22.1195 7.69754 18.0076C7.69754 16.2373 8.46067 14.5249 9.75721 13.0822C9.33171 11.6501 8.79675 8.72958 9.92063 7.61744C12.6925 7.61744 14.3683 9.39382 14.7707 9.87372C16.152 9.40601 17.669 9.14092 19.2631 9.14092C20.8603 9.14092 22.3835 9.40601 23.7679 9.87677C24.1656 9.39992 25.843 7.61744 28.621 7.61744C29.7495 8.7311 29.2084 11.6638 28.7783 13.0928C30.0671 14.5325 30.8256 16.2404 30.8256 18.0076C30.8256 22.1165 27.8903 25.1436 21.739 25.7728C23.4318 26.6458 24.6667 29.0986 24.6667 30.9466V35.1118C24.6667 35.2703 24.6312 35.3845 24.6127 35.5201C31.8215 33.0231 37 26.2588 37 18.2818C37 8.1857 28.7166 0 18.5 0Z" fill="white"/>
</svg>
