<svg width="51" height="42" viewBox="0 0 51 42" fill="none" xmlns="http://www.w3.org/2000/svg">
<path d="M34.2268 0C28.2463 0 23.3831 4.86328 23.3831 10.8438C23.3831 11.2031 23.4729 11.5547 23.5081 11.9062C16.1135 11.1992 9.57446 7.63672 5.13306 2.1875C4.92603 1.92578 4.60572 1.78516 4.26978 1.80859C3.93775 1.83203 3.64087 2.02344 3.47681 2.3125C2.54322 3.91797 2.00806 5.76562 2.00806 7.75C2.00806 10.1523 2.86743 12.3516 4.19556 14.1562C3.93775 14.043 3.6565 13.9805 3.41431 13.8438C3.10572 13.6797 2.73462 13.6875 2.43384 13.8672C2.13306 14.0469 1.94946 14.3711 1.94556 14.7188V14.8438C1.94556 18.5273 3.85181 21.7266 6.66431 23.6875C6.63306 23.6836 6.60181 23.6953 6.57056 23.6875C6.22681 23.6289 5.87915 23.75 5.64868 24.0117C5.41822 24.2734 5.344 24.6367 5.44556 24.9688C6.56275 28.4414 9.41431 31.0938 12.9456 32.0625C10.1331 33.7344 6.87134 34.7188 3.35181 34.7188C2.59009 34.7188 1.85962 34.6797 1.13306 34.5938C0.664309 34.5312 0.21509 34.8047 0.0588402 35.25C-0.101316 35.6953 0.0744652 36.1914 0.476809 36.4375C4.98853 39.332 10.344 41.0312 16.1018 41.0312C25.4338 41.0312 32.7542 37.1328 37.6643 31.5625C42.5745 25.9922 45.1331 18.7578 45.1331 12C45.1331 11.7148 45.1096 11.4375 45.1018 11.1562C46.9338 9.75391 48.5706 8.10938 49.8518 6.1875C50.1057 5.81641 50.0784 5.32031 49.7854 4.97656C49.4963 4.63281 49.0081 4.52734 48.6018 4.71875C48.0862 4.94922 47.4846 4.97266 46.9456 5.15625C47.6565 4.20703 48.2659 3.18359 48.6331 2.03125C48.7581 1.63672 48.6213 1.20312 48.2971 0.945313C47.9729 0.691406 47.5198 0.660156 47.1643 0.875C45.4573 1.88672 43.5667 2.59766 41.5706 3.03125C39.6331 1.21875 37.0823 0 34.2268 0ZM34.2268 2C36.7776 2 39.0823 3.08984 40.6956 4.8125C40.9377 5.0625 41.2932 5.16797 41.6331 5.09375C42.9377 4.83594 44.176 4.45703 45.3831 3.96875C44.6877 4.90625 43.8284 5.70703 42.8206 6.3125C42.3635 6.53516 42.1487 7.0625 42.3167 7.54297C42.4807 8.01953 42.9807 8.29688 43.4768 8.1875C44.4768 8.06641 45.3674 7.66016 46.3206 7.40625C45.4651 8.33203 44.5276 9.16797 43.5081 9.90625C43.2307 10.1094 43.0784 10.4375 43.1018 10.7812C43.1174 11.1875 43.1331 11.5898 43.1331 12C43.1331 18.25 40.7346 25.0352 36.1643 30.2188C31.594 35.4023 24.8831 39.0312 16.1018 39.0312C12.1135 39.0312 8.3479 38.1484 4.94556 36.5938C9.16431 36.2695 13.0549 34.7773 16.1956 32.3125C16.5237 32.0508 16.6526 31.6133 16.5198 31.2148C16.387 30.8164 16.0198 30.543 15.6018 30.5312C12.3049 30.4727 9.54321 28.5547 8.07056 25.8438C8.12525 25.8438 8.17212 25.8438 8.22681 25.8438C9.21509 25.8438 10.1917 25.7188 11.1018 25.4688C11.5393 25.3398 11.8401 24.9336 11.8245 24.4766C11.8088 24.0195 11.4846 23.6289 11.0393 23.5312C7.48071 22.8125 4.81275 19.9141 4.19556 16.3125C5.20337 16.6602 6.23462 16.9336 7.35181 16.9688C7.80884 16.9961 8.2229 16.7109 8.36353 16.2773C8.50415 15.8437 8.33228 15.3672 7.94556 15.125C5.57056 13.5352 4.00806 10.8281 4.00806 7.75C4.00806 6.60938 4.30493 5.5625 4.69556 4.5625C9.69556 10.0508 16.6956 13.6953 24.6018 14.0938C24.9143 14.1094 25.219 13.9805 25.4221 13.7422C25.6252 13.5 25.7034 13.1797 25.6331 12.875C25.4807 12.2266 25.3831 11.5391 25.3831 10.8438C25.3831 5.94531 29.3284 2 34.2268 2Z" fill="white"/>
</svg>
